<svg width="274" height="54" viewBox="0 0 274 54" fill="none" xmlns="http://www.w3.org/2000/svg">
<g clip-path="url(#clip0_266_2)">
<path d="M33.6056 23.3378C33.6283 23.3378 33.6511 23.3378 33.6738 23.3469C43.009 23.3151 53.6635 17.7331 57.4485 10.8773L63.0987 0.691406H28.8607L16.3501 23.3378H33.6056Z" fill="#F2BD54"/>
<path d="M59.7915 11.2087C59.7733 11.2406 59.7506 11.2679 59.7278 11.2906C58.1993 14.1066 58.0355 16.8317 59.2774 18.9653C60.856 21.6812 64.5228 23.2735 69.3405 23.3417H71.6743C76.0598 23.3417 80.2861 21.5311 83.2068 18.2602C84.1894 17.1592 85.0265 16.0037 85.6861 14.8163C89.9943 7.01884 84.9036 0.695312 74.3174 0.695312H65.6283L59.7961 11.2133L59.7915 11.2087Z" fill="#F2BD54"/>
<path d="M42.7725 37.4403C44.3557 34.5788 44.524 31.8082 43.2456 29.6428C41.6261 26.8995 37.8775 25.3164 32.9597 25.3027C32.9369 25.3027 32.9187 25.3073 32.896 25.3073H15.2629L13.2567 28.9376H13.2703L0 53.0853H34.1152L42.7725 37.4357V37.4403Z" fill="#F2BD54"/>
<path d="M81.6417 26.8001C79.5854 25.7674 77.2835 25.3125 74.9816 25.3125H68.6262C59.4229 25.4353 48.9186 30.9764 45.1427 37.682C45.1381 37.7139 45.1245 37.7457 45.1108 37.7776L36.6355 53.0905H56.5023C69.0675 53.0905 80.4043 50.8432 85.5177 41.5899C89.0571 35.1845 87.251 29.6207 81.6372 26.8001H81.6417Z" fill="#F2BD54"/>
<path d="M107.013 24.0935V0.591797H117.909C124.182 0.591797 127.321 2.59804 127.321 6.60597C127.321 9.10354 126.038 10.7777 123.468 11.6329C126.648 12.6884 128.24 14.5536 128.24 17.2331C128.24 19.4759 127.408 21.1774 125.738 22.342C124.069 23.5066 121.626 24.0889 118.4 24.0889H107.013V24.0935ZM118.104 10.2363C119.838 10.2363 121.125 9.97245 121.971 9.44474C122.817 8.91702 123.236 8.08449 123.236 6.94262C123.236 5.80075 122.808 5.05466 121.953 4.57243C121.098 4.09021 119.706 3.8491 117.772 3.8491H111.058V10.2318H118.1L118.104 10.2363ZM118.204 20.8362C120.265 20.8362 121.762 20.545 122.699 19.9627C123.632 19.3804 124.096 18.4523 124.096 17.1831C124.096 15.9138 123.623 14.9721 122.681 14.3671C121.739 13.7666 120.265 13.4618 118.273 13.4618H111.067V20.8316H118.209L118.204 20.8362Z" fill="#F2BD54"/>
<path d="M151.182 24.0935L148.485 18.2021H136.079L133.344 24.0935H128.968L140.059 0.591797H144.599L155.691 24.0889H151.182V24.0935ZM142.261 4.57698L137.521 14.7811H146.933L142.261 4.57698Z" fill="#F2BD54"/>
<path d="M174.165 7.07416C173.815 6.15065 173.356 5.41822 172.782 4.86775C172.209 4.31729 171.499 3.92605 170.644 3.68493C169.789 3.44382 168.724 3.32099 167.451 3.32099C165.344 3.32099 163.711 3.60305 162.546 4.16261C161.382 4.72217 160.804 5.5274 160.804 6.58284C160.804 7.57004 161.182 8.31612 161.941 8.82109C162.697 9.32607 164.02 9.72185 165.908 10.0039L170.781 10.7272C173.524 11.1458 175.535 11.9192 176.822 13.0474C178.105 14.1756 178.746 15.7269 178.746 17.7059C178.746 19.9214 177.796 21.641 175.899 22.8557C174.002 24.0749 171.34 24.6845 167.919 24.6845C164.189 24.6845 161.364 24.0385 159.444 22.742C157.524 21.4454 156.4 19.4392 156.073 16.7187H160.285C160.572 18.3428 161.323 19.521 162.542 20.258C163.761 20.995 165.553 21.359 167.924 21.359C170.053 21.359 171.681 21.0405 172.81 20.4036C173.938 19.7667 174.507 18.8705 174.507 17.7059C174.507 16.7414 174.115 15.9817 173.337 15.4358C172.559 14.8853 171.345 14.4941 169.702 14.253L165.49 13.6252C163.32 13.2976 161.596 12.8472 160.322 12.274C159.048 11.7053 158.129 10.9638 157.556 10.054C156.983 9.14409 156.701 8.02042 156.701 6.68292C156.701 4.5766 157.651 2.9343 159.548 1.76058C161.445 0.58686 164.107 0 167.528 0C169.634 0 171.399 0.232014 172.828 0.691494C174.252 1.15097 175.398 1.85611 176.267 2.79782C177.131 3.73952 177.764 4.96784 178.16 6.48275L174.179 7.07416H174.165Z" fill="#F2BD54"/>
<path d="M199.123 7.07416C198.773 6.15065 198.313 5.41822 197.74 4.86775C197.167 4.31729 196.457 3.92605 195.602 3.68493C194.746 3.44382 193.682 3.32099 192.408 3.32099C190.302 3.32099 188.669 3.60305 187.504 4.16261C186.339 4.72217 185.762 5.5274 185.762 6.58284C185.762 7.57004 186.139 8.31612 186.899 8.82109C187.654 9.32607 188.978 9.72185 190.866 10.0039L195.738 10.7272C198.481 11.1458 200.492 11.9192 201.78 13.0474C203.063 14.1756 203.704 15.7269 203.704 17.7059C203.704 19.9214 202.753 21.641 200.856 22.8557C198.959 24.0749 196.298 24.6845 192.877 24.6845C189.146 24.6845 186.321 24.0385 184.401 22.742C182.482 21.4454 181.358 19.4392 181.03 16.7187H185.243C185.53 18.3428 186.28 19.521 187.499 20.258C188.719 20.995 190.511 21.359 192.881 21.359C195.01 21.359 196.639 21.0405 197.767 20.4036C198.895 19.7667 199.464 18.8705 199.464 17.7059C199.464 16.7414 199.073 15.9817 198.295 15.4358C197.517 14.8853 196.302 14.4941 194.66 14.253L190.447 13.6252C188.277 13.2976 186.553 12.8472 185.279 12.274C184.006 11.7008 183.087 10.9638 182.513 10.054C181.94 9.14409 181.658 8.02042 181.658 6.68292C181.658 4.5766 182.609 2.9343 184.506 1.76058C186.403 0.58686 189.064 0 192.485 0C194.592 0 196.357 0.232014 197.785 0.691494C199.209 1.15097 200.356 1.85611 201.225 2.79782C202.089 3.73952 202.721 4.96784 203.117 6.48275L199.136 7.07416H199.123Z" fill="#F2BD54"/>
<path d="M125.379 52.8956V42.6278H111.194V52.8956H107.013V29.3984H111.194V38.8746H125.379V29.3984H129.56V52.8956H125.379Z" fill="#F2BD54"/>
<path d="M160.076 41.1482C160.076 43.6049 159.544 45.7612 158.479 47.6174C157.415 49.4735 155.873 50.9156 153.857 51.9437C151.837 52.9764 149.458 53.4905 146.715 53.4905C143.972 53.4905 141.761 53.0037 139.755 52.0256C137.748 51.0475 136.188 49.6281 135.082 47.7629C133.972 45.8977 133.422 43.6913 133.422 41.1482C133.422 38.6052 133.954 36.5353 135.019 34.6837C136.083 32.8276 137.625 31.3855 139.641 30.3573C141.661 29.3246 144.04 28.8105 146.783 28.8105C149.526 28.8105 151.737 29.2973 153.744 30.2754C155.75 31.249 157.31 32.6729 158.416 34.5381C159.526 36.4033 160.076 38.6097 160.076 41.1528V41.1482ZM155.763 41.1482C155.763 38.3641 154.976 36.1895 153.411 34.6336C151.842 33.0778 149.631 32.2953 146.779 32.2953C143.926 32.2953 141.706 33.0732 140.114 34.6336C138.522 36.1895 137.726 38.3641 137.726 41.1482C137.726 43.9324 138.508 46.107 140.078 47.6674C141.647 49.2233 143.858 50.0057 146.71 50.0057C149.563 50.0057 151.783 49.2278 153.375 47.6674C154.967 46.1115 155.763 43.937 155.763 41.1482Z" fill="#F2BD54"/>
<path d="M163.866 52.8956V29.3984H168.047V49.3744H182.955L182.363 52.8956H163.866Z" fill="#F2BD54"/>
<path d="M185.602 52.8956V29.3984H195.806C200.174 29.3984 203.513 30.4084 205.828 32.4283C208.144 34.4482 209.3 37.3552 209.3 41.1493C209.3 44.9434 208.071 47.8231 205.615 49.8521C203.158 51.8811 199.66 52.8956 195.115 52.8956H185.602ZM195.247 49.3744C198.472 49.3744 200.902 48.6784 202.535 47.2863C204.168 45.8942 204.987 43.847 204.987 41.1493C204.987 35.6628 201.939 32.9196 195.838 32.9196H189.783V49.3744H195.247Z" fill="#F2BD54"/>
<path d="M213.121 52.8956V29.3984H217.302V52.8956H213.121Z" fill="#F2BD54"/>
<path d="M241.113 52.8956L226.4 35.1578V52.8956H222.352V29.3984H226.237L240.949 47.1362V29.3984H244.998V52.8956H241.113Z" fill="#F2BD54"/>
<path d="M269.669 43.8135H262.527V40.356H273.586V50.2598C272.18 51.2925 270.497 52.0886 268.536 52.6482C266.571 53.2078 264.524 53.4853 262.399 53.4853C259.633 53.4853 257.236 53.0031 255.207 52.0386C253.178 51.0742 251.608 49.673 250.503 47.8442C249.393 46.0108 248.842 43.8135 248.842 41.2431C248.842 38.6728 249.365 36.5619 250.407 34.6921C251.449 32.8269 252.964 31.3802 254.947 30.3475C256.931 29.3149 259.274 28.8008 261.972 28.8008C264.869 28.8008 267.262 29.4058 269.164 30.6114C271.061 31.817 272.362 33.5412 273.063 35.7794L268.914 36.3708C268.386 34.9651 267.54 33.9324 266.38 33.2591C265.215 32.5903 263.714 32.2537 261.871 32.2537C259.106 32.2537 256.963 33.0362 255.439 34.6057C253.915 36.1752 253.15 38.3634 253.15 41.1703C253.15 43.9772 253.947 46.211 255.539 47.735C257.131 49.259 259.429 50.0233 262.431 50.0233C265.434 50.0233 267.786 49.5183 269.674 48.5083V43.8044L269.669 43.8135Z" fill="#F2BD54"/>
</g>
<defs>
<clipPath id="clip0_266_2">
<rect width="273.586" height="53.4907" fill="white"/>
</clipPath>
</defs>
</svg>
